#tb 0: 1/25
#media_type 0: video
#codec_id 0: rawvideo
#dimensions 0: 720x576
#sar 0: 16/15
0,          9,          9,        1,   622080, 0x77c0ca92
0,         10,         10,        1,   622080, 0xbe7fe646
0,         11,         11,        1,   622080, 0x4384c5da
0,         12,         12,        1,   622080, 0x296b9168
0,         13,         13,        1,   622080, 0x96d5738e
0,         14,         14,        1,   622080, 0x769b9681
0,         15,         15,        1,   622080, 0x461d778d
0,         16,         16,        1,   622080, 0xb88c584b
0,         17,         17,        1,   622080, 0x7d7b1635
0,         18,         18,        1,   622080, 0x49c60dc0
0,         19,         19,        1,   622080, 0x498765a4
0,         20,         20,        1,   622080, 0x0caed8f9
0,         21,         21,        1,   622080, 0x41d897d3
0,         22,         22,        1,   622080, 0x7aeb7c93
0,         23,         23,        1,   622080, 0xa8bced40
0,         24,         24,        1,   622080, 0x11de928c
0,         25,         25,        1,   622080, 0x64741075
0,         26,         26,        1,   622080, 0x160f310e
0,         27,         27,        1,   622080, 0x702d489c
0,         28,         28,        1,   622080, 0xaf2fb8aa
0,         29,         29,        1,   622080, 0x575bae0f
0,         30,         30,        1,   622080, 0xfd68a990
0,         31,         31,        1,   622080, 0x8b513f66
0,         32,         32,        1,   622080, 0x0e6ae6c3
0,         33,         33,        1,   622080, 0x3d12d8ab
0,         34,         34,        1,   622080, 0x45d0ac80
0,         35,         35,        1,   622080, 0xb18d4421
0,         36,         36,        1,   622080, 0x2e81bd32
0,         37,         37,        1,   622080, 0x852cf6cf
0,         38,         38,        1,   622080, 0xb055f0e5
